<svg width="1080" height="260" viewBox="0 0 1080 260" fill="none" xmlns="http://www.w3.org/2000/svg">
<path d="M413.811 50H348.348C325.584 50 307.13 68.3671 307.13 91.024C307.13 113.681 325.584 132.048 348.348 132.048H413.811C436.575 132.048 455.029 113.681 455.029 91.024C455.029 68.3671 436.575 50 413.811 50Z" fill="#2CD843"/>
<path d="M317.402 148.508V161.59H441.16V173.797H360.692H317.402V186.885V205.658V210.798H360.692H484.235V203.945H360.692V186.885H484.235V185.503V173.797V161.59V148.508H441.16H317.402Z" fill="white"/>
<path d="M510.803 91.0393H484.235V54.2526H471.085V136.301H484.235V99.5079H510.803V91.0393Z" fill="white"/>
<path d="M193.128 53.2185H50V120.233H193.128V53.2185Z" fill="#2CD843"/>
<path d="M217.053 138.938H200.019V147.406H217.053V211H231.002V53.2185H217.053V138.938Z" fill="white"/>
<path d="M284.871 53.2185H239.178V211H284.871V53.2185Z" fill="white"/>
<path d="M50.3627 211H193.491L121.924 120.233L50.3627 211Z" fill="white"/>
<path d="M1030 166.467H816.608V170.64V210.572H855.318V210.51H986.95V210.572H1030V170.64V166.467ZM855.318 203.663V173.314H986.95V203.663H855.318Z" fill="white"/>
<path d="M986.956 54.1119V100.071H979.254V54.1119H966.111V151.61H979.254V108.539H986.956V151.61H1030V54.1119H986.956Z" fill="white"/>
<path d="M816.965 135.536H935.343V151.61H950.066V55.5253H935.343V128.634H816.965V135.536Z" fill="white"/>
<path d="M935.313 111.617H801.565L816.319 55.5254H950.066L935.313 111.617Z" fill="#2CD843"/>
<path d="M709.577 144.512H690.858V152.981H709.577V211H724.896V53.2185H709.577V144.512Z" fill="white"/>
<path d="M784.089 53.2185H733.883V211H784.089V53.2185Z" fill="white"/>
<path d="M669.675 189.529H539.64V53.2185H530.432V189.529V203.376V211H678.877V203.376V189.529V53.2185H669.675V189.529Z" fill="white"/>
<path d="M604.655 171.068L516.483 119.498L604.655 67.9283L692.832 119.498L604.655 171.068Z" fill="#2CD843"/>
</svg>
